<?xml version="1.0" standalone="no"?>
<!DOCTYPE svg PUBLIC "-//W3C//DTD SVG 20010904//EN"
 "http://www.w3.org/TR/2001/REC-SVG-20010904/DTD/svg10.dtd">
<svg version="1.0" xmlns="http://www.w3.org/2000/svg"
 width="512.000000pt" height="512.000000pt" viewBox="0 0 512.000000 512.000000"
 preserveAspectRatio="xMidYMid meet">
<metadata>
Created by potrace 1.14, written by Peter Selinger 2001-2017
</metadata>
<g transform="translate(0.000000,512.000000) scale(0.100000,-0.100000)"
fill="#000000" stroke="none">
<path d="M2034 3429 c-21 -6 -95 -72 -219 -194 l-188 -185 -58 55 c-63 58
-102 72 -163 61 -86 -16 -143 -124 -105 -199 16 -31 229 -246 261 -263 35 -18
101 -18 136 0 15 8 136 124 268 258 256 257 273 281 259 354 -8 46 -58 101
-103 114 -42 11 -46 11 -88 -1z"/>
<path d="M2675 3125 c-116 -41 -139 -181 -42 -259 l39 -31 506 -3 c563 -3 568
-3 617 62 53 70 32 176 -45 221 -34 19 -53 20 -535 22 -413 2 -507 0 -540 -12z"/>
<path d="M2010 2340 c-19 -10 -114 -98 -210 -194 l-174 -175 -56 53 c-33 32
-72 58 -93 64 -105 29 -203 -65 -182 -175 6 -31 28 -60 123 -157 65 -65 131
-125 149 -132 42 -18 87 -18 121 0 41 22 520 507 532 539 15 41 13 65 -10 112
-37 76 -126 105 -200 65z"/>
<path d="M2675 2125 c-116 -41 -139 -181 -42 -259 l39 -31 506 -3 c563 -3 568
-3 617 62 53 70 32 176 -45 221 -34 19 -53 20 -535 22 -413 2 -507 0 -540 -12z"/>
<path d="M2010 1340 c-19 -10 -114 -98 -210 -194 l-174 -175 -56 53 c-33 32
-72 58 -93 64 -105 29 -203 -65 -182 -175 6 -31 28 -60 123 -157 65 -65 131
-125 149 -132 42 -18 87 -18 121 0 41 22 520 507 532 539 15 41 13 65 -10 112
-37 76 -126 105 -200 65z"/>
<path d="M2675 1125 c-116 -41 -139 -181 -42 -259 l39 -31 528 0 c521 0 529 0
557 21 97 72 97 186 0 258 -28 21 -38 21 -535 23 -419 2 -514 0 -547 -12z"/>
</g>
</svg>
